<svg width="157" height="35" viewBox="0 0 157 35" fill="none" xmlns="http://www.w3.org/2000/svg">
<path d="M10.0306 9.74118C9.33368 9.72916 8.6668 9.8313 8.02996 10.0476C7.39311 10.2639 6.87042 10.5583 6.46188 10.9308C6.05334 11.3032 5.84907 11.7238 5.84907 12.1924C5.84907 12.8413 6.04132 13.3279 6.42583 13.6524C6.81034 13.9648 7.31501 14.1871 7.93984 14.3192C8.57668 14.4514 9.2736 14.5716 10.0306 14.6797C11.7609 14.9321 13.353 15.3826 14.8069 16.0315C16.2609 16.6804 17.4264 17.5455 18.3036 18.6269C19.1807 19.7084 19.6193 21.0241 19.6193 22.5742C19.6193 23.956 19.2708 25.1936 18.5739 26.2871C17.877 27.3685 16.9397 28.2577 15.7622 28.9546C14.5846 29.6515 13.2749 30.1081 11.833 30.3244V34.0373H8.22822V30.3244C7.03864 30.1562 5.92116 29.8318 4.87578 29.3511C3.83039 28.8585 2.92319 28.2337 2.15418 27.4767C1.38516 26.7076 0.814402 25.8185 0.441909 24.8091L5.52464 22.9346C5.6448 23.2831 5.90915 23.6196 6.31769 23.944C6.73824 24.2684 7.26694 24.5388 7.90379 24.7551C8.54063 24.9593 9.24957 25.0615 10.0306 25.0615C10.7516 25.0615 11.4305 24.9593 12.0673 24.7551C12.7041 24.5388 13.2208 24.2444 13.6174 23.8719C14.0139 23.4994 14.2121 23.0668 14.2121 22.5742C14.2121 22.0695 14.0019 21.655 13.5813 21.3305C13.1728 20.9941 12.6441 20.7297 11.9952 20.5375C11.3584 20.3332 10.7035 20.183 10.0306 20.0869C8.20419 19.8225 6.56401 19.39 5.11009 18.7892C3.66818 18.1763 2.52667 17.3352 1.68556 16.2658C0.856458 15.1964 0.441909 13.8386 0.441909 12.1924C0.441909 10.7986 0.79037 9.55493 1.48729 8.46149C2.18422 7.36804 3.12146 6.47285 4.29902 5.77593C5.47657 5.07901 6.78631 4.6224 8.22822 4.40612V0.729249H11.833V4.40612C13.0105 4.57434 14.122 4.90478 15.1674 5.39743C16.2248 5.89008 17.138 6.52692 17.907 7.30796C18.6881 8.07698 19.2588 8.97216 19.6193 9.99351L14.5366 11.8319C14.4164 11.4835 14.1461 11.153 13.7255 10.8406C13.317 10.5162 12.7943 10.2519 12.1574 10.0476C11.5206 9.84331 10.8116 9.74118 10.0306 9.74118ZM23.2351 30L28.1375 4.76659H32.7517L38.4111 19.6543L44.0706 4.76659H48.6847L53.5872 30H48.0719L45.4405 16.374L40.2856 30H36.5367L31.3818 16.374L28.7504 30H23.2351ZM57.7113 30V4.76659H63.1185V30H57.7113ZM79.6573 30.4686C77.9511 30.4686 76.347 30.1322 74.845 29.4593C73.343 28.7744 72.0212 27.8311 70.8797 26.6295C69.7502 25.4279 68.8611 24.0401 68.2122 22.466C67.5753 20.8799 67.2569 19.1857 67.2569 17.3833C67.2569 15.5689 67.5753 13.8747 68.2122 12.3006C68.8611 10.7145 69.7502 9.32663 70.8797 8.13706C72.0212 6.93546 73.343 5.99822 74.845 5.32533C76.347 4.64043 77.9511 4.29797 79.6573 4.29797C81.7 4.29797 83.5805 4.7726 85.2988 5.72186C87.0171 6.6591 88.441 7.91476 89.5705 9.48885L84.7401 12.0843C84.1152 11.3633 83.3643 10.7866 82.4871 10.354C81.6099 9.92142 80.6667 9.70513 79.6573 9.70513C78.6961 9.70513 77.7889 9.90339 76.9357 10.2999C76.0946 10.6964 75.3496 11.2492 74.7008 11.9581C74.0639 12.655 73.5653 13.4661 73.2048 14.3913C72.8443 15.3166 72.6641 16.3139 72.6641 17.3833C72.6641 18.4407 72.8443 19.432 73.2048 20.3572C73.5653 21.2825 74.0639 22.0995 74.7008 22.8085C75.3496 23.5054 76.0946 24.0581 76.9357 24.4667C77.7889 24.8632 78.6961 25.0615 79.6573 25.0615C80.6667 25.0615 81.6099 24.8452 82.4871 24.4126C83.3643 23.968 84.1152 23.3792 84.7401 22.6463L89.5705 25.2777C88.441 26.8398 87.0171 28.0955 85.2988 29.0447C83.5805 29.994 81.7 30.4686 79.6573 30.4686ZM112.442 30H105.377L98.924 20.8799L98.203 21.7451V30H92.7959V4.76659H98.203V13.346L105.377 4.76659H112.442L102.457 16.6623L112.442 30ZM114.974 30V4.76659H131.051V10.1738H120.381V13.7785H128.6V19.1857H120.381V24.5928H131.051V30H114.974ZM150.469 4.76659H156.849L148.089 18.645V30H142.682V18.645L133.923 4.76659H140.303L145.386 12.7692L150.469 4.76659Z" fill="black"/>
</svg>
