<svg width="64" height="65" viewBox="0 0 64 65" fill="none" xmlns="http://www.w3.org/2000/svg">
<g clip-path="url(#clip0_388_1918)" filter="url(#filter0_dd_388_1918)">
<circle cx="32" cy="24.3906" r="12" fill="white"/>
<path d="M39.7214 26.0375L31.985 31.3906L24.2487 26.0375C24.145 25.9649 24.068 25.8629 24.0289 25.7462C23.9897 25.6294 23.9904 25.5038 24.0308 25.3874L24.917 22.7731L26.6894 17.5791C26.7066 17.5368 26.734 17.4989 26.7694 17.4684C26.8269 17.4184 26.9021 17.3906 26.98 17.3906C27.058 17.3906 27.1331 17.4184 27.1907 17.4684C27.228 17.5028 27.2555 17.5456 27.2706 17.5929L29.043 22.7731H34.927L36.6995 17.5791C36.7167 17.5368 36.7441 17.4989 36.7794 17.4684C36.837 17.4184 36.9121 17.3906 36.9901 17.3906C37.068 17.3906 37.1432 17.4184 37.2007 17.4684C37.2381 17.5028 37.2656 17.5456 37.2806 17.5929L39.0531 22.7869L39.9757 25.3874C40.0124 25.5074 40.0074 25.6355 39.9616 25.7526C39.9158 25.8697 39.8316 25.9696 39.7214 26.0375V26.0375Z" stroke="black" stroke-linecap="round" stroke-linejoin="round"/>
</g>
<defs>
<filter id="filter0_dd_388_1918" x="0" y="0.390625" width="64" height="64" filterUnits="userSpaceOnUse" color-interpolation-filters="sRGB">
<feFlood flood-opacity="0" result="BackgroundImageFix"/>
<feColorMatrix in="SourceAlpha" type="matrix" values="0 0 0 0 0 0 0 0 0 0 0 0 0 0 0 0 0 0 127 0" result="hardAlpha"/>
<feMorphology radius="4" operator="erode" in="SourceAlpha" result="effect1_dropShadow_388_1918"/>
<feOffset dy="8"/>
<feGaussianBlur stdDeviation="12"/>
<feColorMatrix type="matrix" values="0 0 0 0 0.0941176 0 0 0 0 0.152941 0 0 0 0 0.294118 0 0 0 0.08 0"/>
<feBlend mode="normal" in2="BackgroundImageFix" result="effect1_dropShadow_388_1918"/>
<feColorMatrix in="SourceAlpha" type="matrix" values="0 0 0 0 0 0 0 0 0 0 0 0 0 0 0 0 0 0 127 0" result="hardAlpha"/>
<feMorphology radius="6" operator="erode" in="SourceAlpha" result="effect2_dropShadow_388_1918"/>
<feOffset dy="6"/>
<feGaussianBlur stdDeviation="6"/>
<feColorMatrix type="matrix" values="0 0 0 0 0.0941176 0 0 0 0 0.152941 0 0 0 0 0.294118 0 0 0 0.12 0"/>
<feBlend mode="normal" in2="effect1_dropShadow_388_1918" result="effect2_dropShadow_388_1918"/>
<feBlend mode="normal" in="SourceGraphic" in2="effect2_dropShadow_388_1918" result="shape"/>
</filter>
<clipPath id="clip0_388_1918">
<rect width="24" height="24" fill="white" transform="translate(20 12.3906)"/>
</clipPath>
</defs>
</svg>
