<svg width="64" height="65" viewBox="0 0 64 65" fill="none" xmlns="http://www.w3.org/2000/svg">
<g filter="url(#filter0_dd_388_1925)">
<circle cx="32" cy="24.3906" r="12" fill="white"/>
<path fill-rule="evenodd" clip-rule="evenodd" d="M28.2675 17.3906C26.4629 17.3906 25 18.8535 25 20.6581V28.1931C25 29.9976 26.4629 31.4605 28.2675 31.4605H35.8024C37.607 31.4605 39.0699 29.9976 39.0699 28.1931V20.6581C39.0699 18.8535 37.607 17.3906 35.8024 17.3906H28.2675ZM24 20.6581C24 18.3012 25.9106 16.3906 28.2675 16.3906H35.8024C38.1593 16.3906 40.0699 18.3012 40.0699 20.6581V28.1931C40.0699 30.5499 38.1593 32.4605 35.8024 32.4605H28.2675C25.9106 32.4605 24 30.5499 24 28.1931V20.6581ZM32.4364 21.9061C31.9134 21.8285 31.3792 21.9178 30.9098 22.1614C30.4404 22.4049 30.0598 22.7903 29.8221 23.2626C29.5844 23.7349 29.5016 24.2702 29.5856 24.7922C29.6696 25.3143 29.9161 25.7966 30.29 26.1705C30.6639 26.5444 31.1462 26.7909 31.6683 26.8749C32.1903 26.9589 32.7256 26.8762 33.1979 26.6384C33.6703 26.4007 34.0556 26.0201 34.2991 25.5507C34.5427 25.0813 34.632 24.5471 34.5545 24.0241C34.4753 23.4905 34.2267 22.9966 33.8453 22.6152C33.4639 22.2338 32.97 21.9852 32.4364 21.9061ZM30.4492 21.2737C31.1053 20.9333 31.852 20.8085 32.5831 20.9169C33.3289 21.0275 34.0193 21.375 34.5524 21.9081C35.0855 22.4412 35.4331 23.1316 35.5436 23.8774C35.6521 24.6085 35.5272 25.3552 35.1868 26.0113C34.8463 26.6673 34.3077 27.1994 33.6475 27.5317C32.9873 27.864 32.2391 27.9796 31.5094 27.8622C30.7797 27.7448 30.1055 27.4002 29.5829 26.8776C29.0603 26.355 28.7157 25.6808 28.5983 24.9511C28.4809 24.2214 28.5966 23.4732 28.9289 22.813C29.2612 22.1528 29.7932 21.6142 30.4492 21.2737ZM36.1792 19.7814C35.903 19.7814 35.6792 20.0052 35.6792 20.2814C35.6792 20.5575 35.903 20.7814 36.1792 20.7814H36.1878C36.464 20.7814 36.6878 20.5575 36.6878 20.2814C36.6878 20.0052 36.464 19.7814 36.1878 19.7814H36.1792Z" fill="black"/>
</g>
<defs>
<filter id="filter0_dd_388_1925" x="0" y="0.390625" width="64" height="64" filterUnits="userSpaceOnUse" color-interpolation-filters="sRGB">
<feFlood flood-opacity="0" result="BackgroundImageFix"/>
<feColorMatrix in="SourceAlpha" type="matrix" values="0 0 0 0 0 0 0 0 0 0 0 0 0 0 0 0 0 0 127 0" result="hardAlpha"/>
<feMorphology radius="4" operator="erode" in="SourceAlpha" result="effect1_dropShadow_388_1925"/>
<feOffset dy="8"/>
<feGaussianBlur stdDeviation="12"/>
<feColorMatrix type="matrix" values="0 0 0 0 0.0941176 0 0 0 0 0.152941 0 0 0 0 0.294118 0 0 0 0.08 0"/>
<feBlend mode="normal" in2="BackgroundImageFix" result="effect1_dropShadow_388_1925"/>
<feColorMatrix in="SourceAlpha" type="matrix" values="0 0 0 0 0 0 0 0 0 0 0 0 0 0 0 0 0 0 127 0" result="hardAlpha"/>
<feMorphology radius="6" operator="erode" in="SourceAlpha" result="effect2_dropShadow_388_1925"/>
<feOffset dy="6"/>
<feGaussianBlur stdDeviation="6"/>
<feColorMatrix type="matrix" values="0 0 0 0 0.0941176 0 0 0 0 0.152941 0 0 0 0 0.294118 0 0 0 0.12 0"/>
<feBlend mode="normal" in2="effect1_dropShadow_388_1925" result="effect2_dropShadow_388_1925"/>
<feBlend mode="normal" in="SourceGraphic" in2="effect2_dropShadow_388_1925" result="shape"/>
</filter>
</defs>
</svg>
