<svg width="60" height="60" viewBox="0 0 60 60" fill="none" xmlns="http://www.w3.org/2000/svg">
<path d="M18.75 15.9375V28.125H36.723L30.5496 21.9504C30.2128 21.5959 30.0278 21.1239 30.0341 20.6349C30.0404 20.146 30.2374 19.6789 30.5831 19.3331C30.9289 18.9874 31.396 18.7904 31.8849 18.7841C32.3739 18.7778 32.8459 18.9628 33.2004 19.2996L42.5754 28.6746C42.9268 29.0262 43.1241 29.5029 43.1241 30C43.1241 30.4971 42.9268 30.9738 42.5754 31.3254L33.2004 40.7004C32.8459 41.0372 32.3739 41.2222 31.8849 41.2159C31.396 41.2096 30.9289 41.0126 30.5831 40.6669C30.2374 40.3211 30.0404 39.854 30.0341 39.3651C30.0278 38.8761 30.2128 38.4041 30.5496 38.0496L36.723 31.875H18.75V44.0625C18.7519 45.8024 19.4439 47.4705 20.6742 48.7008C21.9045 49.9311 23.5726 50.6231 25.3125 50.625H49.6875C51.4274 50.6231 53.0955 49.9311 54.3258 48.7008C55.5561 47.4705 56.2481 45.8024 56.25 44.0625V15.9375C56.2481 14.1976 55.5561 12.5295 54.3258 11.2992C53.0955 10.0689 51.4274 9.37686 49.6875 9.375H25.3125C23.5726 9.37686 21.9045 10.0689 20.6742 11.2992C19.4439 12.5295 18.7519 14.1976 18.75 15.9375Z" fill="black"/>
<path d="M5.625 28.125C5.12772 28.125 4.65081 28.3225 4.29917 28.6742C3.94754 29.0258 3.75 29.5027 3.75 30C3.75 30.4973 3.94754 30.9742 4.29917 31.3258C4.65081 31.6775 5.12772 31.875 5.625 31.875H18.75V28.125H5.625Z" fill="black"/>
</svg>
