<svg width="1440" height="1250" viewBox="0 0 1440 1250" fill="none" xmlns="http://www.w3.org/2000/svg">
<path d="M176.605 221.813C204.867 221.562 233.148 223.28 261.334 222.557C289.516 221.832 319.426 217.959 332.11 209.855C341.859 203.626 339.709 196.077 348.345 189.682C362.986 178.842 404.306 174.354 441.141 174.507C496.582 174.739 548.652 182.512 602.627 186.576C656.606 190.638 720.888 189.989 758.031 176.787C799.452 162.064 788.642 139.258 805.132 120.146C823.831 98.4764 882.946 80.9495 951.771 76.6689C1034.72 71.5111 1131.73 83.491 1199 67.0974C1256.32 53.1312 1261.54 24.8821 1315.33 9.54272C1348.53 0.0751953 1398.46 -2.40466 1440 2.35815V1250H0C0 1244.5 0 267.5 0 262C34.1388 244.851 113.191 222.376 176.605 221.813Z" fill="white"/>
</svg>
